<?xml version="1.0" encoding="UTF-8"?> <svg xmlns="http://www.w3.org/2000/svg" width="253.326" height="65" viewBox="0 0 253.326 65"><defs><style>.a{fill:#394154;}</style></defs><path class="a" d="M199.777,229.416v8.371H211.3v3.621H199.777V252.9h-4.088V225.639h17.288v3.777Zm16.26-1.4a2.526,2.526,0,0,1,2.57-2.492,2.484,2.484,0,0,1,2.492,2.492,2.544,2.544,0,0,1-2.492,2.531A2.585,2.585,0,0,1,216.036,228.014Zm.584,5.413h3.972V252.9h-3.972Zm26.014,10.747H228.227c.195,3.465,2.3,5.88,5.724,5.88,2.453,0,4.244-1.012,4.867-3h3.816c-.818,3.894-4.089,6.23-8.683,6.23-5.607,0-9.618-3.933-9.618-9.929,0-6.347,4.166-10.319,9.462-10.319,4.75,0,8.916,3.154,8.916,9.851C242.712,243.278,242.673,243.667,242.634,244.173Zm-14.368-2.8h10.591a4.877,4.877,0,0,0-5.062-5.1A5.557,5.557,0,0,0,228.266,241.37Zm18.55-16.12h3.972V252.9h-3.972Zm26.917,0V252.9H270.5l-.35-2.609h-.273a7.352,7.352,0,0,1-6.152,3c-5.218,0-9.033-4.01-9.033-10.163,0-6.23,3.933-10.085,9.033-10.085a7.556,7.556,0,0,1,6.035,2.648V225.25Zm-3.971,17.872c0-3.933-2.142-6.619-5.451-6.619-3.348,0-5.646,2.687-5.646,6.619,0,4.011,2.3,6.7,5.646,6.7C267.62,249.819,269.761,247.133,269.761,243.122Zm27.762.078c0,6.23-3.933,10.085-9.034,10.085a7.557,7.557,0,0,1-6.035-2.647v10.046h-3.972V233.427h3.232l.351,2.609h.273a7.352,7.352,0,0,1,6.152-3C293.707,233.037,297.523,237.048,297.523,243.2Zm-3.972,0c0-4.011-2.3-6.7-5.646-6.7-3.309,0-5.451,2.687-5.451,6.7,0,3.933,2.141,6.619,5.451,6.619C291.254,249.819,293.551,247.133,293.551,243.2Zm7.028-.039c0-5.918,4.205-10.124,9.929-10.124a10.126,10.126,0,1,1-9.929,10.124Zm16,0c0-3.66-2.453-6.658-6.074-6.658s-6,3-6,6.658c0,3.621,2.375,6.658,6,6.658S316.583,246.782,316.583,243.161Zm7.105-15.147a2.526,2.526,0,0,1,2.57-2.492,2.484,2.484,0,0,1,2.492,2.492,2.544,2.544,0,0,1-2.492,2.531A2.585,2.585,0,0,1,323.688,228.014Zm.584,5.413h3.972V252.9h-3.972Zm8.679,0h3.582l.389,2.336h.273a6.452,6.452,0,0,1,5.685-2.726c4.322,0,7.281,2.765,7.281,7.787V252.9h-3.972V241.681c0-3.582-1.947-5.179-4.438-5.179-2.531,0-4.828,1.636-4.828,5.49v10.9h-3.972Zm23.557,14.757V236.619H352.3v-3.193h1.363c2.3,0,3.154-.818,3.154-2.92v-2.375h3.622v5.3h4.945v3.193H360.44v11.019c0,1.285.467,2.453,2.531,2.453a6.321,6.321,0,0,0,1.908-.311v3.076a11.517,11.517,0,0,1-3.037.428C357.286,253.285,356.507,250.4,356.507,248.184Zm-141.7,22.3c0,5.139-3.465,8.449-8.956,8.449H199.66v10.474h-3.971V262.151h10.357C211.419,262.151,214.807,265.539,214.807,270.484Zm-4.166.039c0-3-1.986-4.751-4.984-4.751h-6v9.54h5.8C208.81,275.312,210.64,273.443,210.64,270.523Zm7.32-.584h3.582l.389,2.726h.273c1.051-1.83,2.414-3.115,5.646-3.115H229.1v3.972a15.159,15.159,0,0,0-1.908-.117c-3.7,0-5.257,2.842-5.257,6.191v9.812H217.96Zm14.25-5.412a2.526,2.526,0,0,1,2.57-2.492,2.484,2.484,0,0,1,2.492,2.492,2.544,2.544,0,0,1-2.492,2.531A2.585,2.585,0,0,1,232.211,264.526Zm.584,5.412h3.972v19.468h-3.972Zm7.359,0h4.128l5.646,15.341h.272l5.607-15.341h4.089l-7.437,19.468h-4.828Zm39.677,16.47v3h-1.791c-1.83,0-3.115-.584-3.66-2.414a7.815,7.815,0,0,1-6.386,2.8c-3.776,0-6.619-1.791-6.619-5.607,0-3.7,2.8-5.607,6.542-5.957l5.957-.584v-.974c0-2.492-1.4-3.894-3.816-3.894a3.7,3.7,0,0,0-3.971,3.427h-3.933c.351-3.855,3.232-6.658,7.9-6.658,4.439,0,7.788,2.414,7.788,7.281v7.982c0,1.09.506,1.6,1.479,1.6Zm-5.957-5.918-4.634.467c-2.3.195-3.893,1.207-3.893,3.076,0,1.947,1.479,2.648,3.232,2.648,2.414,0,5.3-1.246,5.3-4.75Zm10.9,4.205V273.132H280.57v-3.193h1.363c2.3,0,3.154-.818,3.154-2.92v-2.375h3.622v5.3h4.945v3.193h-4.945v11.019c0,1.285.467,2.453,2.531,2.453a6.308,6.308,0,0,0,1.908-.312v3.076a11.535,11.535,0,0,1-3.037.428C285.554,289.8,284.776,286.915,284.776,284.7Zm29.007-4.011H299.376c.195,3.466,2.3,5.88,5.724,5.88,2.453,0,4.244-1.012,4.867-3h3.816c-.818,3.894-4.088,6.23-8.683,6.23-5.607,0-9.617-3.933-9.617-9.929,0-6.347,4.166-10.318,9.462-10.318,4.751,0,8.917,3.154,8.917,9.851C313.861,279.79,313.822,280.179,313.783,280.685Zm-14.368-2.8h10.591a4.877,4.877,0,0,0-5.062-5.1A5.556,5.556,0,0,0,299.415,277.882ZM152.7,241.457l-16.062-.007v23.631H116.959V230.542h49.3v-4.9h-54.2v63.765h4.9V269.981h19.682v19.426h4.9V269.994l11.163-.006a14.5,14.5,0,0,0,14.716-14.683C167.419,246.389,160.326,241.457,152.7,241.457Zm-.663,23.637h-10.5V246.35h10.443c5.407,0,10.41,2.72,10.41,8.955S157.449,265.095,152.041,265.095Z" transform="translate(-112.059 -225.25)"></path></svg> 